<?xml version="1.0" encoding="UTF-8"?>
<svg xmlns="http://www.w3.org/2000/svg" xmlns:xlink="http://www.w3.org/1999/xlink" width="44px" height="19px" viewBox="0 0 43 19" version="1.1">
<defs>
<clipPath id="clip1">
  <path d="M 2.578125 3.34375 L 40.421875 3.34375 L 40.421875 15.761719 L 2.578125 15.761719 Z M 2.578125 3.34375 "/>
</clipPath>
</defs>
<g id="surface1">
<g clip-path="url(#clip1)" clip-rule="nonzero">
<path style=" stroke:none;fill-rule:evenodd;fill:rgb(100%,100%,100%);fill-opacity:1;" d="M 2.578125 3.34375 L 6.640625 3.34375 L 6.640625 6.105469 L 7.996094 6.105469 L 7.996094 4.730469 L 9.355469 4.730469 L 9.355469 3.359375 L 13.414062 3.359375 L 13.414062 7.496094 L 12.058594 7.496094 L 12.058594 8.882812 L 10.699219 8.882812 L 10.699219 10.257812 L 12.058594 10.257812 L 12.058594 11.628906 L 13.414062 11.628906 L 13.414062 15.761719 L 9.355469 15.761719 L 9.355469 14.390625 L 7.996094 14.390625 L 7.996094 13.019531 L 6.640625 13.019531 L 6.640625 15.78125 L 2.578125 15.78125 Z M 29.601562 3.34375 L 33.660156 3.34375 L 33.660156 6.105469 L 35.019531 6.105469 L 35.019531 4.730469 L 36.378906 4.730469 L 36.378906 3.359375 L 40.4375 3.359375 L 40.4375 7.496094 L 39.078125 7.496094 L 39.078125 8.882812 L 37.71875 8.882812 L 37.71875 10.257812 L 39.078125 10.257812 L 39.078125 11.628906 L 40.4375 11.628906 L 40.4375 15.761719 L 36.378906 15.761719 L 36.378906 14.390625 L 35.019531 14.390625 L 35.019531 13.019531 L 33.660156 13.019531 L 33.660156 15.78125 L 29.601562 15.78125 Z M 14.742188 3.34375 L 18.800781 3.34375 L 18.800781 15.761719 L 14.742188 15.761719 Z M 21.5 3.34375 L 21.5 4.714844 L 20.140625 4.714844 L 20.140625 14.375 L 21.5 14.375 L 21.5 15.746094 L 28.257812 15.746094 L 28.257812 11.609375 L 24.199219 11.609375 L 24.199219 7.476562 L 28.257812 7.476562 L 28.257812 3.34375 Z M 21.5 3.34375 "/>
</g>
</g>
</svg>
